<mxfile host="app.diagrams.net" agent="Mozilla/5.0 (Windows NT 10.0; Win64; x64) AppleWebKit/537.36 (KHTML, like Gecko) Chrome/141.0.0.0 Safari/537.36" version="28.2.7">
  <diagram id="dw4Z_FAQLD_2mJkgeg3U" name="Page-1">
    <mxGraphModel dx="1042" dy="623" grid="1" gridSize="10" guides="1" tooltips="1" connect="1" arrows="1" fold="1" page="1" pageScale="1" pageWidth="850" pageHeight="1100" math="0" shadow="0">
      <root>
        <mxCell id="0" />
        <mxCell id="1" parent="0" />
        <mxCell id="start" value="START" style="rounded=1;whiteSpace=wrap;html=1;arcSize=40;fillColor=#ffe6cc;strokeColor=#d79b00;" vertex="1" parent="1">
          <mxGeometry x="345" y="140" width="120" height="40" as="geometry" />
        </mxCell>
        <mxCell id="send_addr" value="Send(ADDR + R/W)" style="rounded=0;whiteSpace=wrap;html=1;" vertex="1" parent="1">
          <mxGeometry x="345" y="200" width="140" height="40" as="geometry" />
        </mxCell>
        <mxCell id="ack" value="ACK ?" style="rhombus;whiteSpace=wrap;html=1;" vertex="1" parent="1">
          <mxGeometry x="345" y="260" width="80" height="80" as="geometry" />
        </mxCell>
        <mxCell id="stop_error1" value="STOP → ERROR" style="ellipse;whiteSpace=wrap;html=1;fillColor=#ffe6cc;strokeColor=#d79b00;" vertex="1" parent="1">
          <mxGeometry x="195" y="360" width="120" height="60" as="geometry" />
        </mxCell>
        <mxCell id="rw_check" value="R/W ?" style="rhombus;whiteSpace=wrap;html=1;" vertex="1" parent="1">
          <mxGeometry x="345" y="360" width="80" height="80" as="geometry" />
        </mxCell>
        <mxCell id="write_loop" value="WRITE → LOOP(Send DATA + Wait ACK)" style="rounded=0;whiteSpace=wrap;html=1;" vertex="1" parent="1">
          <mxGeometry x="345" y="460" width="160" height="60" as="geometry" />
        </mxCell>
        <mxCell id="stop_write" value="STOP" style="ellipse;whiteSpace=wrap;html=1;fillColor=#ffe6cc;strokeColor=#d79b00;" vertex="1" parent="1">
          <mxGeometry x="345" y="580" width="120" height="60" as="geometry" />
        </mxCell>
        <mxCell id="read_loop" value="READ → LOOP(Receive DATA)" style="rounded=0;whiteSpace=wrap;html=1;" vertex="1" parent="1">
          <mxGeometry x="495" y="460" width="160" height="60" as="geometry" />
        </mxCell>
        <mxCell id="stop_read" value="STOP" style="ellipse;whiteSpace=wrap;html=1;fillColor=#ffe6cc;strokeColor=#d79b00;" vertex="1" parent="1">
          <mxGeometry x="495" y="580" width="120" height="60" as="geometry" />
        </mxCell>
        <mxCell id="e1" style="edgeStyle=orthogonalEdgeStyle;endArrow=open;html=1;" edge="1" parent="1" source="start" target="send_addr">
          <mxGeometry relative="1" as="geometry" />
        </mxCell>
        <mxCell id="e2" style="edgeStyle=orthogonalEdgeStyle;endArrow=open;html=1;" edge="1" parent="1" source="send_addr" target="ack">
          <mxGeometry relative="1" as="geometry" />
        </mxCell>
        <mxCell id="e3" style="edgeStyle=orthogonalEdgeStyle;endArrow=open;html=1;" edge="1" parent="1" source="ack" target="stop_error1">
          <mxGeometry relative="1" as="geometry" />
        </mxCell>
        <mxCell id="e4" style="edgeStyle=orthogonalEdgeStyle;endArrow=open;html=1;" edge="1" parent="1" source="ack" target="rw_check">
          <mxGeometry relative="1" as="geometry" />
        </mxCell>
        <mxCell id="e5" style="edgeStyle=orthogonalEdgeStyle;endArrow=open;html=1;" edge="1" parent="1" source="rw_check" target="write_loop">
          <mxGeometry relative="1" as="geometry" />
        </mxCell>
        <mxCell id="e6" style="edgeStyle=orthogonalEdgeStyle;endArrow=open;html=1;" edge="1" parent="1" source="write_loop" target="stop_write">
          <mxGeometry relative="1" as="geometry" />
        </mxCell>
        <mxCell id="e7" style="edgeStyle=orthogonalEdgeStyle;endArrow=open;html=1;" edge="1" parent="1" source="rw_check" target="read_loop">
          <mxGeometry relative="1" as="geometry" />
        </mxCell>
        <mxCell id="e8" style="edgeStyle=orthogonalEdgeStyle;endArrow=open;html=1;" edge="1" parent="1" source="read_loop" target="stop_read">
          <mxGeometry relative="1" as="geometry" />
        </mxCell>
      </root>
    </mxGraphModel>
  </diagram>
</mxfile>
